<?xml version="1.0" encoding="utf-8"?>
<!-- Generator: Adobe Illustrator 23.0.0, SVG Export Plug-In . SVG Version: 6.00 Build 0)  -->
<svg version="1.1" id="Capa_1" xmlns="http://www.w3.org/2000/svg" xmlns:xlink="http://www.w3.org/1999/xlink" x="0px" y="0px"
	 viewBox="0 0 658.4 174.6" style="enable-background:new 0 0 658.4 174.6;" xml:space="preserve">
<style type="text/css">
	.st0{fill:#1A4A84;}
	.st1{fill:#00A39C;}
	.st2{fill:#FCA700;}
</style>
<g>
	<path class="st0" d="M31.4,123.5v-12.2c7.3,2.7,15.5,4.1,24.6,4.1c11.1,0,16.7-3.7,16.7-11.2c0-5.4-3.4-8.1-10.2-8.1H51.1
		c-14.8,0-22.3-6.8-22.3-20.3c0-14.9,10.6-22.3,31.7-22.3c8.1,0,15.8,1.2,23.1,3.5v12.2c-7.3-2.7-15-4.1-23.1-4.1
		c-12.2,0-18.2,3.5-18.2,10.6c0,5.4,2.9,8.1,8.8,8.1h11.4c15.8,0,23.7,6.8,23.7,20.3c0,15.2-10,22.8-30.1,22.8
		C46.8,127.1,38.6,125.9,31.4,123.5z"/>
	<path class="st0" d="M108.4,54.1v72.5H94.9V54.1H108.4z"/>
	<path class="st0" d="M119.7,123.5v-12.2c7.3,2.7,15.5,4.1,24.6,4.1c11.1,0,16.7-3.7,16.7-11.2c0-5.4-3.4-8.1-10.2-8.1h-11.4
		c-14.8,0-22.3-6.8-22.3-20.3c0-14.9,10.6-22.3,31.7-22.3c8.1,0,15.8,1.2,23.1,3.5v12.2c-7.3-2.7-15-4.1-23.1-4.1
		c-12.2,0-18.2,3.5-18.2,10.6c0,5.4,2.9,8.1,8.8,8.1h11.4c15.8,0,23.7,6.8,23.7,20.3c0,15.2-10,22.8-30.1,22.8
		C135.2,127.1,127,125.9,119.7,123.5z"/>
	<path class="st0" d="M180.7,90.4c0-24.6,12.1-36.9,36.4-36.9c23.9,0,35.8,12.3,35.8,36.9c0,24.4-11.9,36.6-35.8,36.6
		C193.9,127.1,181.8,114.9,180.7,90.4z M217.1,115.4c14.6,0,21.9-8.4,21.9-25.3c0-16.6-7.3-24.9-21.9-24.9c-15,0-22.5,8.3-22.5,24.9
		C194.7,107,202.1,115.4,217.1,115.4z"/>
	<path class="st0" d="M276.5,54.1v60.8h28.8v11.7H263V54.1H276.5z"/>
</g>
<g>
	<path class="st1" d="M376.3,106.7c0,3.3-0.6,6.3-1.8,9.1c-1.2,2.8-2.8,5.2-5,7.2c-2.1,2-4.7,3.6-7.7,4.7c-3,1.1-6.4,1.7-10,1.7
		c-3.5,0-7-0.4-10.5-1.3c-3.5-0.9-6.7-2.1-9.7-3.8l2.8-12c2.4,1.3,5,2.4,7.9,3.3c2.9,0.9,5.9,1.3,9,1.3c3.3,0,5.9-0.8,8-2.3
		c2.1-1.5,3.1-3.8,3.1-6.7c0-2.7-1-4.9-2.9-6.6c-2-1.7-5-3.5-9-5.4c-2.9-1.3-5.4-2.7-7.7-4.2c-2.2-1.5-4.1-3.1-5.6-4.9
		c-1.5-1.8-2.7-3.8-3.5-6c-0.8-2.2-1.2-4.7-1.2-7.5c0-6.9,2-12.2,6.1-15.9c4.1-3.7,9.6-5.5,16.5-5.5c3.5,0,6.8,0.4,9.7,1.1
		c2.9,0.7,5.8,1.9,8.5,3.6l-2.6,12c-2.3-1.3-4.7-2.3-7.2-3.1c-2.5-0.8-5.1-1.2-7.7-1.2c-2.9,0-5.2,0.6-7,1.8
		c-1.8,1.2-2.7,3.2-2.7,5.8c0,1.2,0.1,2.2,0.4,3.1c0.3,0.9,0.8,1.7,1.6,2.5c0.8,0.8,1.8,1.6,3.1,2.4c1.3,0.8,2.9,1.7,4.9,2.6
		c2.6,1.3,5.1,2.6,7.5,4c2.4,1.4,4.5,3.1,6.3,4.9c1.8,1.9,3.3,4,4.4,6.5C375.7,100.7,376.3,103.5,376.3,106.7z"/>
	<path class="st1" d="M443.1,128h-14.2l-4.6-15.7h-26.9l-4.6,15.7h-14.2l24.8-74.6h14.9L443.1,128z M410.8,66l-9.8,34h19.6L410.8,66
		z"/>
	<path class="st1" d="M463.1,53.4v62.1h24.4V128h-38.1V53.4H463.1z"/>
	<path class="st1" d="M532.7,53.4h13.8v47.7c0,4.3-0.6,8.1-1.9,11.6c-1.2,3.5-3,6.4-5.3,8.9c-2.3,2.5-5.1,4.4-8.5,5.7
		c-3.4,1.3-7.2,2-11.3,2c-4.3,0-8.1-0.7-11.4-2c-3.3-1.3-6.2-3.3-8.4-5.7c-2.3-2.5-4.1-5.4-5.3-8.9c-1.2-3.5-1.9-7.3-1.9-11.6V53.4
		h13.7v48.4c0,4.7,1.1,8.4,3.3,11c2.2,2.7,5.5,4,9.9,4c4.4,0,7.7-1.3,9.9-4c2.2-2.7,3.3-6.3,3.3-11V53.4z"/>
	<path class="st1" d="M557.6,53.4h19.7c5.8,0,11,0.9,15.7,2.8c4.7,1.9,8.7,4.5,12,7.8c3.3,3.3,5.9,7.3,7.7,11.8
		c1.8,4.6,2.7,9.5,2.7,14.9s-0.9,10.3-2.7,14.9c-1.8,4.6-4.4,8.5-7.7,11.8c-3.3,3.3-7.3,5.9-12,7.8c-4.7,1.9-9.9,2.8-15.7,2.8h-19.7
		V53.4z M577.6,115.5c3.5,0,6.7-0.6,9.6-1.7c2.9-1.1,5.5-2.7,7.6-4.9c2.1-2.1,3.8-4.7,5-7.8c1.2-3.1,1.8-6.5,1.8-10.4
		c0-3.9-0.6-7.4-1.8-10.4c-1.2-3.1-2.8-5.7-5-7.8c-2.1-2.1-4.7-3.8-7.6-4.9c-2.9-1.1-6.2-1.7-9.6-1.7h-6.3v49.5H577.6z"/>
</g>
<g>
	<path class="st2" d="M356.2,32.8c-3.1,0.2-6.3,0.4-9.4,0.5l-9.4,0.4l-9.4,0.4c-3.1,0.1-6.3,0.2-9.4,0.3l1.7-1.7l0.3,10.1l0.2,10.1
		l0.2,10.1l0.1,10.1c0,1.4-1.1,2.6-2.5,2.6l0,0l-0.1,0c-5.4,0.1-10.8,0.2-16.1,0.2l-16.1,0.1l2.9-2.9l0,8.5l0,8.5l-0.1,17l-2.8-2.8
		l16.3,0.2c5.4,0.1,10.8,0.2,16.3,0.3l0.1,0c1.2,0,2.2,1,2.2,2.3l-0.2,10.2c-0.1,3.4-0.2,6.8-0.3,10.2l-0.3,10.2l-0.4,10.2l-1-1
		l9.5,0.4c3.2,0.2,6.3,0.3,9.5,0.5c-3.2,0.2-6.3,0.4-9.5,0.5l-9.5,0.4c-0.5,0-1-0.4-1-0.9l0,0l0-0.1l-0.4-10.2l-0.3-10.2
		c-0.1-3.4-0.2-6.8-0.3-10.2l-0.2-10.2l2.3,2.3c-5.4,0.1-10.8,0.2-16.3,0.3l-16.3,0.2c-1.5,0-2.8-1.2-2.8-2.7l0,0l0,0l-0.1-17l0-8.5
		l0-8.5l0,0c0-1.6,1.3-2.8,2.9-2.8h0l16.1,0.1c5.4,0,10.8,0.1,16.1,0.2l-2.6,2.6l0.1-10.1l0.2-10.1l0.2-10.1l0.3-10.1l0-0.1
		c0-0.9,0.8-1.6,1.7-1.6l0,0c3.1,0.1,6.3,0.2,9.4,0.3l9.4,0.4l9.4,0.4C349.9,32.4,353.1,32.6,356.2,32.8z"/>
</g>
</svg>
